<svg xmlns="http://www.w3.org/2000/svg" viewBox="0 0 64 80" width="48" height="60">
  <ellipse cx="34" cy="74" rx="14" ry="3" fill="rgba(0,0,0,0.3)"/>
  <path d="M20 30 Q20 14 34 14 Q48 14 48 30 L48 60 Q48 66 44 66 L42 66 L42 72 L36 72 L36 66 L32 66 L32 72 L26 72 L26 66 L24 66 Q20 66 20 60 Z"
        fill="#3eff7a" stroke="#1f9b46" stroke-width="2"/>
  <path d="M14 38 Q10 38 10 44 L10 56 Q10 60 14 60 L20 60 L20 38 Z"
        fill="#3eff7a" stroke="#1f9b46" stroke-width="2"/>
  <path d="M26 22 Q26 18 32 18 L42 18 Q48 18 48 26 L48 32 Q48 34 46 34 L28 34 Q26 34 26 32 Z"
        fill="#a8d8ff" stroke="#3a6e9b" stroke-width="2"/>
</svg>